P3
40 22
255
0 0 0
0 0 0
0 0 0
0 0 0
0 0 0
0 0 0
0 0 0
0 0 0
0 0 0
0 0 0
0 0 0
0 0 0
0 0 0
0 0 0
0 0 0
0 0 0
0 0 0
0 0 0
0 0 0
0 0 0
0 0 0
0 0 0
0 0 0
0 0 0
0 0 0
0 0 0
0 0 0
0 0 0
0 0 0
0 0 0
0 0 0
0 0 0
0 0 0
0 0 0
0 0 0
0 0 0
0 0 0
0 0 0
0 0 0
0 0 0
0 0 0
0 0 0
0 0 0
0 0 0
0 0 0
0 0 0
0 0 0
0 0 0
0 0 0
0 0 0
0 0 0
0 0 0
0 0 0
0 0 0
0 0 0
0 0 0
0 0 0
0 0 0
0 0 0
0 0 0
0 0 0
0 0 0
0 0 0
0 0 0
0 0 0
0 0 0
0 0 0
0 0 0
0 0 0
0 0 0
0 0 0
0 0 0
0 0 0
0 0 0
0 0 0
0 0 0
0 0 0
0 0 0
0 0 0
0 0 0
0 0 0
0 0 0
0 0 0
0 0 0
0 0 0
0 0 0
0 0 0
0 0 0
0 0 0
0 0 0
0 0 0
0 0 0
0 0 0
0 0 0
0 0 0
0 0 0
0 0 0
0 0 0
0 0 0
0 0 0
0 0 0
0 0 0
0 0 0
0 0 0
0 0 0
0 0 0
0 0 0
0 0 0
0 0 0
0 0 0
0 0 0
0 0 0
0 0 0
0 0 0
0 0 0
0 0 0
0 0 0
0 0 0
0 0 0
0 0 0
0 0 0
0 0 0
0 0 0
0 0 0
0 0 0
0 0 0
0 0 0
0 0 0
0 0 0
0 0 0
0 0 0
0 0 0
0 0 0
0 0 0
0 0 0
0 0 0
0 0 0
0 0 0
0 0 0
0 0 0
0 0 0
0 0 0
0 0 0
0 0 0
0 0 0
0 0 0
0 0 0
0 0 0
0 0 0
0 0 0
0 0 0
0 0 0
0 0 0
0 0 0
0 0 0
0 0 0
0 0 0
0 0 0
0 0 0
0 0 0
0 0 0
0 0 0
0 0 0
0 0 0
0 0 0
0 0 0
0 0 0
0 0 0
0 0 0
0 0 0
0 0 0
0 0 0
0 0 0
0 0 0
0 0 0
0 0 0
0 0 0
0 0 0
0 0 0
0 0 0
0 0 0
0 0 0
0 0 0
0 0 0
0 0 0
0 0 0
0 0 0
0 0 0
0 0 0
0 0 0
0 0 0
0 0 0
0 0 0
0 0 0
0 0 0
0 0 0
0 0 0
0 0 0
0 0 0
0 0 0
0 0 0
0 0 0
0 0 0
0 0 0
0 0 0
0 0 0
0 0 0
0 0 0
0 0 0
0 0 0
0 0 0
0 0 0
0 0 0
0 0 0
0 0 0
0 0 0
0 0 0
0 0 0
0 0 0
0 0 0
0 0 0
0 0 0
0 0 0
0 0 0
0 0 0
0 0 0
0 0 0
0 0 0
0 0 0
0 0 0
0 0 0
0 0 0
0 0 0
0 0 0
0 0 0
0 0 0
0 0 0
0 0 0
0 0 0
0 0 0
0 0 0
0 0 0
0 0 0
0 0 0
0 0 0
0 0 0
0 0 0
0 0 0
0 0 0
0 0 0
0 0 0
0 0 0
0 0 0
0 0 0
0 0 0
0 0 0
0 0 0
0 0 0
0 0 0
0 0 0
0 0 0
0 0 0
0 0 0
0 0 0
0 0 0
0 0 0
0 0 0
0 0 0
0 0 0
0 0 0
0 0 0
0 0 0
0 0 0
0 0 0
0 0 0
0 0 0
0 0 0
0 0 0
0 0 0
0 0 0
0 0 0
0 0 0
0 0 0
0 0 0
0 0 0
0 0 0
0 0 0
0 0 0
0 0 0
0 0 0
0 0 0
0 0 0
0 0 0
0 0 0
0 0 0
0 0 0
0 0 0
0 0 0
0 0 0
15 15 15
0 0 0
0 0 0
0 0 0
0 0 0
0 0 0
0 0 0
0 0 0
0 0 0
0 0 0
0 0 0
0 0 0
0 0 0
0 0 0
0 0 0
0 0 0
0 0 0
0 0 0
0 0 0
0 0 0
0 0 0
0 0 0
0 0 0
0 0 0
0 0 0
0 0 0
0 0 0
0 0 0
0 0 0
0 0 0
0 0 0
0 0 0
0 0 0
0 0 0
0 0 0
0 0 0
0 0 0
0 0 0
2 2 2
0 0 0
54 54 54
44 44 44
55 55 55
43 43 43
0 0 0
0 0 0
0 0 0
0 0 0
0 0 0
0 0 0
0 0 0
0 0 0
0 0 0
0 0 0
0 0 0
0 0 0
0 0 0
0 0 0
0 0 0
0 0 0
0 0 0
0 0 0
0 0 0
0 0 0
0 0 0
0 0 0
0 0 0
0 0 0
0 0 0
0 0 0
0 0 0
0 0 0
0 0 0
0 0 0
0 0 0
0 0 0
13 13 13
0 0 0
18 18 18
17 17 17
74 74 74
86 86 86
60 60 60
90 90 90
41 41 41
0 0 0
0 0 0
255 255 255
255 255 255
142 142 142
0 0 0
0 0 0
0 0 0
0 0 0
0 0 0
0 0 0
0 0 0
0 0 0
0 0 0
0 0 0
0 0 0
0 0 0
0 0 0
0 0 0
0 0 0
0 0 0
0 0 0
0 0 0
0 0 0
0 0 0
0 0 0
0 0 0
0 0 0
0 0 0
0 0 0
0 0 0
0 0 0
0 0 0
21 21 21
6 6 6
92 92 92
120 120 120
105 105 105
113 113 113
74 74 74
18 18 18
0 0 0
255 255 255
255 255 255
151 151 151
0 0 0
0 0 0
0 0 0
0 0 0
0 0 0
0 0 0
0 0 0
0 0 0
0 0 0
0 0 0
0 0 0
0 0 0
0 0 0
0 0 0
0 0 0
0 0 0
0 0 0
0 0 0
0 0 0
0 0 0
0 0 0
0 0 0
0 0 0
0 0 0
0 0 0
0 0 0
11 11 11
2 2 2
3 3 3
31 31 31
91 91 91
120 120 120
88 88 88
93 93 93
61 61 61
12 12 12
0 0 0
255 255 255
255 255 255
140 140 140
0 0 0
0 0 0
0 0 0
0 0 0
0 0 0
0 0 0
0 0 0
0 0 0
0 0 0
0 0 0
0 0 0
0 0 0
0 0 0
0 0 0
0 0 0
0 0 0
0 0 0
0 0 0
0 0 0
0 0 0
0 0 0
0 0 0
0 0 0
0 0 0
0 0 0
0 0 0
1 1 1
0 0 0
22 22 22
27 27 27
75 75 75
117 117 117
114 114 114
102 102 102
97 97 97
14 14 14
0 0 0
255 255 255
255 255 255
117 117 117
0 0 0
0 0 0
0 0 0
0 0 0
0 0 0
0 0 0
0 0 0
0 0 0
0 0 0
0 0 0
0 0 0
0 0 0
0 0 0
0 0 0
0 0 0
0 0 0
0 0 0
0 0 0
0 0 0
0 0 0
0 0 0
0 0 0
0 0 0
0 0 0
0 0 0
0 0 0
23 23 23
40 40 40
8 8 8
30 30 30
49 49 49
97 97 97
79 79 79
91 91 91
39 39 39
0 0 0
0 0 0
255 255 255
255 255 255
134 134 134
0 0 0
0 0 0
0 0 0
0 0 0
0 0 0
0 0 0
0 0 0
0 0 0
0 0 0
22 22 22
0 0 0
0 0 0
0 0 0
0 0 0
0 0 0
0 0 0
0 0 0
0 0 0
0 0 0
0 0 0
0 0 0
0 0 0
0 0 0
0 0 0
0 0 0
0 0 0
23 23 23
22 22 22
9 9 9
37 37 37
76 76 76
88 88 88
57 57 57
39 39 39
23 23 23
0 0 0
23 23 23
248 248 248
255 255 255
114 114 114
0 0 0
0 0 0
13 13 13
0 0 0
0 0 0
0 0 0
24 24 24
0 0 0
0 0 0
15 15 15
0 0 0
0 0 0
21 21 21
0 0 0
0 0 0
0 0 0
0 0 0
0 0 0
0 0 0
0 0 0
0 0 0
0 0 0
24 24 24
0 0 0
0 0 0
0 0 0
2 2 2
8 8 8
20 20 20
39 39 39
54 54 54
47 47 47
32 32 32
25 25 25
6 6 6
0 0 0
25 25 25
0 0 0
0 0 0
0 0 0
19 19 19
32 32 32
0 0 0
42 42 42
60 60 60
41 41 41
33 33 33
25 25 25
0 0 0
6 6 6
25 25 25
41 41 41
21 21 21
0 0 0
0 0 0
0 0 0
27 27 27
36 36 36
12 12 12
0 0 0
6 6 6
8 8 8
9 9 9
37 37 37
16 16 16
31 31 31
17 17 17
53 53 53
53 53 53
28 28 28
60 60 60
61 61 61
73 73 73
76 76 76
70 70 70
114 114 114
46 46 46
36 36 36
68 68 68
100 100 100
96 96 96
77 77 77
94 94 94
41 41 41
76 76 76
70 70 70
60 60 60
25 25 25
48 48 48
39 39 39
38 38 38
25 25 25
0 0 0
12 12 12
0 0 0
50 50 50
4 4 4
18 18 18
25 25 25
42 42 42
33 33 33
14 14 14
53 53 53
20 20 20
31 31 31
54 54 54
36 36 36
55 55 55
71 71 71
65 65 65
46 46 46
76 76 76
93 93 93
101 101 101
97 97 97
72 72 72
91 91 91
92 92 92
52 52 52
42 42 42
31 31 31
86 86 86
103 103 103
71 71 71
78 78 78
58 58 58
68 68 68
49 49 49
37 37 37
68 68 68
50 50 50
36 36 36
25 25 25
0 0 0
23 23 23
52 52 52
20 20 20
24 24 24
31 31 31
31 31 31
22 22 22
13 13 13
29 29 29
10 10 10
40 40 40
0 0 0
23 23 23
5 5 5
37 37 37
42 42 42
59 59 59
27 27 27
28 28 28
28 28 28
50 50 50
49 49 49
50 50 50
14 14 14
22 22 22
34 34 34
24 24 24
23 23 23
6 6 6
15 15 15
9 9 9
1 1 1
36 36 36
24 24 24
0 0 0
33 33 33
40 40 40
5 5 5
6 6 6
14 14 14
0 0 0
0 0 0
12 12 12
0 0 0
8 8 8
0 0 0
22 22 22
41 41 41
7 7 7
11 11 11
28 28 28
29 29 29
29 29 29
25 25 25
21 21 21
27 27 27
25 25 25
17 17 17
24 24 24
1 1 1
25 25 25
11 11 11
37 37 37
43 43 43
31 31 31
0 0 0
5 5 5
20 20 20
0 0 0
11 11 11
0 0 0
0 0 0
0 0 0
0 0 0
0 0 0
0 0 0
3 3 3
0 0 0
7 7 7
0 0 0
0 0 0
0 0 0
0 0 0
11 11 11
0 0 0
24 24 24
17 17 17
0 0 0
10 10 10
15 15 15
14 14 14
0 0 0
0 0 0
0 0 0
29 29 29
0 0 0
21 21 21
0 0 0
35 35 35
23 23 23
17 17 17
6 6 6
14 14 14
0 0 0
28 28 28
0 0 0
5 5 5
15 15 15
0 0 0
0 0 0
24 24 24
0 0 0
0 0 0
0 0 0
0 0 0
0 0 0
0 0 0
0 0 0
19 19 19
24 24 24
25 25 25
43 43 43
0 0 0
0 0 0
0 0 0
7 7 7
0 0 0
33 33 33
28 28 28
0 0 0
0 0 0
0 0 0
0 0 0
19 19 19
0 0 0
0 0 0
5 5 5
12 12 12
0 0 0
20 20 20
0 0 0
25 25 25
0 0 0
0 0 0
7 7 7
0 0 0
35 35 35
0 0 0
0 0 0
0 0 0
0 0 0
0 0 0
0 0 0
0 0 0
0 0 0
0 0 0
0 0 0
